<svg xmlns="http://www.w3.org/2000/svg" aria-hidden="true" style="position:absolute;width:0;height:0;overflow:hidden">
  <defs>
    <symbol id="icon-antenna" viewBox="0 0 32 32">
      <path d="m30.773 22.098-8.443-8.505.937-4.615c.242.094.499.144.758.146h.006c1.192.014 2.17-.941 2.184-2.133s-.941-2.17-2.133-2.184c-1.192-.014-2.17.941-2.184 2.133-.003.255.039.509.125.749l-4.96.605L8.972.161C8.873.06 8.737.002 8.595.001c-.14.001-.274.056-.373.155L6.709 1.66c-.208.208-.208.546 0 .754l.814.826C4.37 9.038 5.394 16.218 10.042 20.903c.043.041.092.074.146.098-.034.18-.051.364-.052.547v6.187h-6.4c-1.472.002-2.665 1.195-2.667 2.667v1.067c0 .295.239.533.533.533h24.533c.295 0 .533-.239.533-.533v-1.067c-.002-1.472-1.195-2.665-2.667-2.667h-6.4v-2.742c1.003.21 2.024.317 3.049.32 2.458-.003 4.877-.615 7.04-1.783l.818.823c.099.101.235.159.377.16.14-.001.274-.056.373-.155l1.513-1.504c.208-.208.208-.546 0-.754zM23.28 6.233c.418-.415 1.093-.414 1.509.004s.414 1.093-.004 1.508c-.2.199-.47.31-.752.31h-.003c-.589-.003-1.064-.483-1.061-1.072.002-.282.115-.552.314-.751h-.002zm-1.256 3.505-.598 2.946-1.175-1.182 1.774-1.763zm-.605-.902-1.92 1.909-1.485-1.493 3.405-.415zM24.004 28.8c.884 0 1.6.716 1.6 1.6v.533H2.137V30.4c0-.884.716-1.6 1.6-1.6h20.267zm-7.467-2.133v1.067h-5.333v-1.067h5.333zM11.204 25.6v-4.053c0-1.294 1.196-2.347 2.667-2.347s2.667 1.053 2.667 2.347V25.6h-5.333zm6.4-1.696v-2.357c0-1.882-1.675-3.413-3.733-3.413-1.331-.02-2.576.657-3.281 1.786C6.532 15.646 5.619 9.275 8.311 4.033l18.602 18.708c-2.872 1.461-6.165 1.873-9.309 1.163zm11.289-.684L7.836 2.039l.755-.752 7.935 7.98c.004 0 .006.007.01.01l13.115 13.191-.757.752z"/>
      <path d="M13.876 20.267h-.005c-.884-.001-1.601.714-1.602 1.598s.714 1.601 1.598 1.602h.005c.884.001 1.601-.714 1.602-1.598s-.714-1.601-1.598-1.602zm.373 1.978c-.1.1-.236.156-.378.155-.295-.002-.532-.242-.531-.536.001-.141.057-.276.157-.375s.233-.154.373-.155c.295.002.532.242.531.536-.001.141-.057.276-.157.375h.005z"/>
    </symbol>
    <symbol id="icon-clock" viewBox="0 0 32 32">
      <path d="M31.297 15.301C31.295 6.849 24.442-.002 15.989 0S.686 6.855.688 15.308c.001 6.658 4.307 12.551 10.649 14.576.061.019.124.029.187.029.121 0 .239-.032.342-.094.135-.08.236-.207.283-.356l3.865-12.25c1.057-.005 1.909-.866 1.903-1.923s-.866-1.909-1.923-1.903c-.284.001-.565.067-.82.191l-5.106-5.107c-.253-.245-.657-.238-.902.016-.239.247-.239.639 0 .886l5.103 5.109c-.392.799-.168 1.764.536 2.309l-3.683 11.673C3.844 25.783.118 17.71 2.799 10.432S13.553-.572 20.831 2.109c7.278 2.681 11.004 10.754 8.323 18.032-1.31 3.556-4.001 6.431-7.462 7.973l-.398-1.874c-.073-.345-.411-.565-.756-.492-.109.023-.209.074-.293.148l-3.837 3.426c-.263.234-.287.637-.052.9.076.085.174.149.283.184l4.899 1.564c.335.108.694-.077.802-.412.034-.106.04-.219.017-.328l-.391-1.839c5.664-2.388 9.342-7.942 9.329-14.089zm-15.305-.637c.352 0 .638.286.638.638s-.286.638-.638.638c-.352 0-.638-.285-.638-.638s.285-.638.638-.638zm2.101 14.864 2.184-1.948.603 2.84-2.787-.892z"/>
      <path d="M15.354 3.185V4.46c0 .352.285.638.638.638s.638-.285.638-.638V3.185c0-.352-.286-.638-.638-.638s-.638.286-.638.638zM3.876 14.664c-.352 0-.638.286-.638.638s.285.638.638.638h1.275c.352 0 .638-.285.638-.638s-.285-.638-.638-.638H3.876zM28.108 15.939c.352 0 .638-.285.638-.638s-.285-.638-.638-.638h-1.275c-.352 0-.638.286-.638.638s.286.638.638.638h1.275z"/>
    </symbol>
    <symbol id="icon-diagram" viewBox="0 0 32 32">
      <path d="M14.925 14.965h1.066v4.798h-1.066v-4.797zM19.19 17.097h1.066v2.665H19.19v-2.665zM10.661 18.696h1.066v1.066h-1.066v-1.066zM7.463 18.163h1.066v1.599H7.463v-1.599z"/>
      <path d="M1.599 28.291h25.587c.883 0 1.599-.716 1.599-1.599V24.56c0-.883-.716-1.599-1.599-1.599h-.533V9.668L29.681 6.8c.703.346 1.553.136 2.013-.499s.396-1.508-.152-2.068-1.42-.644-2.065-.198c-.644.446-.873 1.292-.542 2.002L26.654 8.2V6.97c0-.883-.716-1.599-1.599-1.599H3.733c-.883 0-1.599.716-1.599 1.599v15.992h-.533c-.883 0-1.599.716-1.599 1.599v2.132c0 .883.716 1.599 1.599 1.599zM30.384 4.837c.294 0 .533.239.533.533s-.239.533-.533.533c-.294 0-.533-.239-.533-.533s.239-.533.533-.533zM3.198 6.969c0-.294.239-.533.533-.533h21.322c.294 0 .533.239.533.533v2.239l-1.066 1.013V8.035c0-.294-.239-.533-.533-.533H4.797c-.294 0-.533.239-.533.533v13.326c0 .294.239.533.533.533h19.19c.294 0 .533-.239.533-.533v-9.674l1.066-1.01v12.284H3.198V6.969zm4.798 6.93c-.721-.002-1.354.478-1.546 1.174s.105 1.433.725 1.801c.62.368 1.41.276 1.928-.226l1.853.93c.215.108.476.057.636-.123l3.939-4.431 3.872 2.901c.208.156.498.139.686-.039l3.365-3.188v8.131H5.33V8.569h18.124v2.66l-3.771 3.572-3.904-2.927c-.222-.166-.534-.135-.718.072l-3.993 4.493-1.493-.746c.011-.064.018-.129.02-.193 0-.883-.716-1.599-1.599-1.599zm.533 1.599c0 .294-.239.533-.533.533s-.533-.239-.533-.533c0-.294.239-.533.533-.533s.533.239.533.533zm3.198 8.529h5.331v.533c0 .294-.239.533-.533.533h-4.264c-.294 0-.533-.239-.533-.533v-.533zm-10.661.533c0-.294.239-.533.533-.533h9.062v.533c0 .883.716 1.599 1.599 1.599h4.264c.883 0 1.599-.716 1.599-1.599v-.533h9.062c.294 0 .533.239.533.533v2.132c0 .294-.239.533-.533.533H1.598c-.294 0-.533-.239-.533-.533V24.56z"/>
    </symbol>
    <symbol id="icon-cosmos" viewBox="0 0 32 32">
      <path d="M29.434 13.653c-.323-.435-.796-.716-1.334-.791-.54-.077-1.073.065-1.504.395l-1.406 1.078-2.131 1.591-1.525-.607c2.719-1.22 4.619-3.939 4.619-7.096 0-4.293-3.506-7.785-7.816-7.785s-7.816 3.492-7.816 7.785c0 1.556.465 3.003 1.258 4.22l-3.103-.027h-.005c-.01 0-.017.005-.026.005-.059.002-.117.014-.174.035-.014.005-.029.008-.043.015-.007.003-.014.004-.022.007l-3.63 1.792c-.001 0-.001 0-.001.001l-2.126 1.022c-.023.01-.047.024-.071.04-.847.564-1.136 1.672-.672 2.577.247.481.668.836 1.186.998.199.062.403.093.605.093.325 0 .647-.08.943-.237l1.558-.829 2.542-1.313 1.523-.009-6.11 6.081c-.001.001-.001.001-.002.001l-1.503 1.497c-.355.353-.55.822-.55 1.322s.195.97.55 1.323c.365.363.844.545 1.324.545s.959-.182 1.325-.545l1.476-1.47 1.955-1.459 1.011 1.007-1.978 1.97c-.001.001-.001.001-.002.001l-1.503 1.497c-.355.353-.55.822-.55 1.322s.195.97.55 1.323c.365.363.845.545 1.325.545s.96-.182 1.325-.545l3.909-3.892c.001-.001.001-.001.001-.002l1.134-1.123-.004-.004c.007-.007.017-.01.025-.017l5.8-6.353 3.897.555c.028.004.056.006.084.006.072 0 .143-.017.21-.043.02-.007.037-.017.056-.026.022-.011.044-.017.065-.03l3.608-2.395c.013-.009.02-.023.033-.033.014-.011.032-.016.045-.029l1.428-1.337c.743-.696.845-1.836.238-2.652zM4.076 17.707c-.195.104-.416.125-.627.058-.21-.065-.38-.208-.479-.402-.181-.352-.076-.781.241-1.013l1.475-.71.504 1.474-1.114.592zm3.927-2.052-1.738.898-.493-1.441 2.276-1.123-.044 1.666zm16.954-7.434c0 1.031-.246 2.004-.672 2.874L19.59 8.963c-.049-.644-.383-1.207-.885-1.558l1.644-5.457c2.67.849 4.609 3.34 4.609 6.274zm-13.237 0c0-3.632 2.969-6.587 6.618-6.587.284 0 .562.024.837.059l-1.608 5.338c-.022-.001-.042-.007-.064-.007-1.159 0-2.102.94-2.102 2.096s.943 2.096 2.102 2.096c.78 0 1.453-.431 1.817-1.061l4.337 1.97c-1.207 1.624-3.138 2.683-5.318 2.683-3.649 0-6.618-2.955-6.618-6.587zm6.688.899c0 .495-.406.898-.905.898s-.905-.403-.905-.898.406-.898.905-.898.905.403.905.898zM4.452 25.989c-.265.263-.695.262-.959.001-.128-.128-.198-.296-.198-.475s.07-.347.198-.473l1.08-1.076.956.952-1.077 1.072zm3.608 4.192c-.265.263-.695.264-.96.001-.128-.128-.198-.296-.198-.475s.07-.347.198-.473l1.081-1.077.956.952-1.077 1.072zm3.91-3.895c-.001.001-.001.001-.002.001l-1.982 1.976-.956-.952 1.98-1.971v-.001c0-.001.001-.001.002-.001.045-.045.073-.099.101-.152.008-.016.023-.029.029-.045.019-.046.022-.096.029-.144.004-.028.016-.053.016-.081 0-.04-.014-.079-.023-.119-.007-.036-.007-.073-.021-.107-.023-.056-.062-.106-.102-.155-.011-.013-.016-.03-.028-.043h-.001c-.001 0-.001-.002-.001-.002l-1.804-1.796c-.019-.019-.044-.027-.065-.043-.032-.025-.062-.047-.098-.065-.034-.017-.069-.027-.105-.037-.038-.011-.075-.019-.116-.022-.037-.002-.071.001-.107.005-.04.005-.078.01-.117.023-.038.012-.071.031-.106.05-.022.013-.047.017-.068.032l-1.991 1.486-1.011-1.007 2.694-2.679 4.896 4.815-1.041 1.032zm7.656-7.879c-.017-.002-.034.004-.051.003-.044-.002-.086.001-.129.008-.034.006-.066.013-.099.024-.038.013-.073.031-.108.053-.034.02-.064.042-.093.069-.014.013-.032.019-.045.033l-5.275 5.778-4.86-4.779 3.181-3.164c.234-.234.235-.613.002-.847-.118-.118-.273-.176-.428-.175v-.001l-2.491.015.031-1.805 3.485.03c1.42 1.453 3.401 2.359 5.593 2.359.491 0 .97-.051 1.437-.138.045.036.089.073.146.095l2.706 1.078.171.852.2.994-3.371-.48zm4.537.201-.352-1.749 1.624-1.213 1.063 1.411-2.335 1.551zm4.215-3.179-.941.882-1.046-1.388.934-.716c.174-.134.394-.189.61-.161.217.031.408.144.539.319.243.328.202.784-.096 1.064z"/>
    </symbol>
    <symbol id="icon-facebook" viewBox="0 0 32 32">
      <path d="M21.329 5.313h2.921V.225C23.746.156 22.013 0 19.994 0c-4.212 0-7.097 2.649-7.097 7.519V12H8.249v5.688h4.648V32h5.699V17.689h4.46l.708-5.688h-5.169V8.082c.001-1.644.444-2.769 2.735-2.769z"/>
    </symbol>
    <symbol id="icon-twitter" viewBox="0 0 38 32">
      <path d="M38.4 4.094c-1.428.626-2.95 1.042-4.536 1.243 1.632-.974 2.878-2.506 3.463-4.351-1.522.907-3.202 1.548-4.992 1.906C30.89 1.354 28.831.401 26.585.401c-4.358 0-7.867 3.538-7.867 7.874 0 .624.053 1.224.182 1.795-6.545-.319-12.336-3.456-16.226-8.234-.679 1.178-1.078 2.527-1.078 3.979 0 2.726 1.404 5.143 3.497 6.542-1.265-.024-2.506-.391-3.557-.97v.086c0 3.826 2.729 7.003 6.307 7.735-.641.175-1.339.259-2.064.259-.504 0-1.013-.029-1.49-.134 1.02 3.118 3.914 5.41 7.356 5.484-2.678 2.095-6.079 3.358-9.761 3.358-.646 0-1.265-.029-1.884-.108C3.487 30.316 7.62 31.6 12.077 31.6c14.486 0 22.406-12 22.406-22.402 0-.348-.012-.684-.029-1.018 1.562-1.109 2.875-2.494 3.946-4.087z"/>
    </symbol>
    <symbol id="icon-instagram" viewBox="0 0 32 32">
      <path d="M31.969 9.408c-.075-1.7-.35-2.869-.744-3.882-.406-1.075-1.031-2.038-1.851-2.838-.8-.813-1.769-1.444-2.832-1.844C25.523.45 24.361.175 22.66.1 20.947.019 20.403 0 16.059 0s-4.888.019-6.595.094c-1.7.075-2.869.35-3.882.744-1.075.406-2.038 1.031-2.838 1.85C1.931 3.488 1.3 4.457.9 5.52.506 6.539.231 7.702.156 9.402c-.081 1.713-.1 2.257-.1 6.601s.019 4.888.094 6.595c.075 1.7.35 2.869.744 3.882.406 1.075 1.038 2.038 1.85 2.838.8.813 1.769 1.444 2.832 1.844 1.019.394 2.182.669 3.882.744 1.706.075 2.25.094 6.595.094s4.888-.019 6.595-.094c1.7-.075 2.869-.35 3.882-.744 2.151-.831 3.851-2.532 4.682-4.682.394-1.019.669-2.182.744-3.882.075-1.707.094-2.25.094-6.595s-.006-4.888-.081-6.595zm-2.882 13.065c-.069 1.563-.331 2.407-.55 2.969-.538 1.394-1.644 2.501-3.038 3.038-.563.219-1.413.481-2.969.55-1.688.075-2.194.094-6.464.094s-4.782-.019-6.464-.094c-1.563-.069-2.407-.331-2.969-.55-.694-.256-1.325-.663-1.838-1.194-.531-.519-.938-1.144-1.194-1.838-.219-.563-.481-1.413-.55-2.969-.075-1.688-.094-2.194-.094-6.464s.019-4.782.094-6.464c.069-1.563.331-2.407.55-2.969.256-.694.663-1.325 1.2-1.838.519-.531 1.144-.938 1.838-1.194.563-.219 1.413-.481 2.969-.55 1.688-.075 2.194-.094 6.464-.094 4.276 0 4.782.019 6.464.094 1.563.069 2.407.331 2.969.55.694.256 1.325.662 1.838 1.194.531.519.938 1.144 1.194 1.838.219.563.481 1.413.55 2.969.075 1.688.094 2.194.094 6.464s-.019 4.77-.094 6.458z"/>
      <path d="M16.059 7.783c-4.538 0-8.22 3.682-8.22 8.22s3.682 8.22 8.22 8.22c4.539 0 8.22-3.682 8.22-8.22s-3.682-8.22-8.22-8.22zm0 13.552c-2.944 0-5.332-2.388-5.332-5.332s2.388-5.332 5.332-5.332c2.945 0 5.332 2.388 5.332 5.332s-2.388 5.332-5.332 5.332zM26.524 7.458c0 1.06-.859 1.919-1.919 1.919s-1.919-.859-1.919-1.919.859-1.919 1.919-1.919 1.919.859 1.919 1.919z"/>
    </symbol>
    <symbol id="icon-linkedin" viewBox="0 0 32 32">
      <path d="M31.992 32v-.001H32V20.263c0-5.741-1.236-10.164-7.948-10.164-3.227 0-5.392 1.771-6.276 3.449h-.093v-2.913h-6.364v21.364h6.627V21.42c0-2.785.528-5.479 3.977-5.479 3.399 0 3.449 3.179 3.449 5.657v10.401h6.62zM.528 10.636h6.635V32H.528V10.636zM3.843 0C1.722 0 0 1.721 0 3.843s1.721 3.879 3.843 3.879c2.121 0 3.843-1.757 3.843-3.879C7.685 1.722 5.963 0 3.843 0z"/>
    </symbol>
  </defs>
</svg>
